<svg xmlns="http://www.w3.org/2000/svg" width="402.978" height="405.146" viewBox="0 0 402.978 405.146">
  <g id="converstion_rates_1000_" data-name="converstion rates (1000)" transform="translate(-1225.052 -69.493)">
    <path id="currency_exchange_FILL0_wght400_GRAD0_opsz48" d="M203.489,407.146q-51.288,0-98.913-30.386t-75.1-69.519v63.074H2V259.82H111.9v27.624H49.167q23.354,35.45,66.629,63.764t87.694,28.314a167.835,167.835,0,0,0,67.545-13.812,174.943,174.943,0,0,0,92.731-93.23A170.3,170.3,0,0,0,377.5,204.573h27.476a197.58,197.58,0,0,1-15.8,78.727A203.588,203.588,0,0,1,281.8,391.263,194.712,194.712,0,0,1,203.489,407.146Zm-13.28-70.44V311.845Q169.6,306.32,155.635,294.12t-23.583-33.379l23.354-7.827q5.5,17.495,19.462,27.624a52.84,52.84,0,0,0,31.826,10.129q18.317,0,30.452-8.978t12.135-23.71a33.1,33.1,0,0,0-11.448-25.552q-11.448-10.359-42.13-23.25-27.476-11.51-41.214-24.861t-13.738-35.911q0-20.257,13.738-34.53t36.634-17.495l76.016,40.284-8.472-34.76-42.359-5.525c11.6,1.228,17.516,1.957,30.223,11.049s15.417,14.579,20.607,25.322l-21.981,10.589Q238.292,130.45,228.217,124T204.4,117.559q-17.859,0-28.163,8.287t-10.3,22.559a27.671,27.671,0,0,0,11.906,23.48q11.906,8.747,38.466,19.8,31.6,13.351,44.877,28.084t13.28,38.213a53.451,53.451,0,0,1-4.121,21.178,47.274,47.274,0,0,1-11.677,16.574,60.086,60.086,0,0,1-18.546,11.28,91.414,91.414,0,0,1-24.728,5.755v23.94ZM2,204.573a197.58,197.58,0,0,1,15.8-78.727A203.588,203.588,0,0,1,125.183,17.884,194.713,194.713,0,0,1,203.489,2Q254.777,2,302.4,32.386t75.1,69.519V38.831h27.476V149.326h-109.9V121.7h62.736q-23.354-35.45-66.4-63.765T203.489,29.624a167.835,167.835,0,0,0-67.545,13.812,174.944,174.944,0,0,0-92.731,93.23,170.3,170.3,0,0,0-13.738,67.908Z" transform="translate(1223.052 67.493)" fill="#ff8f70"/>
    <rect id="Rectangle_2" data-name="Rectangle 2" width="171" height="268" transform="translate(1339 143.977)" fill="#fff"/>
    <path id="swap_vert_FILL0_wght400_GRAD0_opsz48" d="M21.36,34.145V12.007l-9.9,8.407L8,17.471,23.916,3.95,39.832,17.471l-3.464,2.942L26.307,11.937V34.145ZM44.862,60,28.946,46.405l3.464-2.872,9.9,8.407V29.8h4.948V52.01l10.061-8.477,3.464,2.942Z" transform="translate(1392.611 240.093)"/>
    <text id="_1000_points" data-name="1000 points" transform="translate(1351.5 195.155)" font-size="25" font-family="SegoeUI-Bold, Segoe UI" font-weight="700"><tspan x="0" y="27">1000 points</tspan></text>
    <text id="ksh_1050" data-name="ksh 1050" transform="translate(1369 315.977)" font-size="25" font-family="SegoeUI-Bold, Segoe UI" font-weight="700"><tspan x="0" y="27">ksh 1050</tspan></text>
  </g>
</svg>
