<svg width="552" height="579" viewBox="0 0 552 579" fill="none" xmlns="http://www.w3.org/2000/svg">
<rect width="552" height="579" fill="#F5F5F5"/>
<g clip-path="url(#clip0_0_1)">
<rect width="552" height="579" fill="#2C2D3F"/>
<path d="M230 25H70C57.8497 25 48 34.8497 48 47V426C48 438.15 57.8497 448 70 448H230C242.15 448 252 438.15 252 426V47C252 34.8497 242.15 25 230 25Z" fill="url(#paint0_linear_0_1)"/>
<path d="M105 247.56V222.282H114.316C116.05 222.282 117.548 222.549 118.812 223.082C120.076 223.617 121.051 224.376 121.737 225.362C122.423 226.346 122.767 227.503 122.767 228.832C122.767 230.042 122.501 231.105 121.972 232.019C121.442 232.933 120.666 233.679 119.732 234.173C121.032 234.671 122.044 235.46 122.766 236.54C123.488 237.62 123.849 238.896 123.849 240.368C123.849 241.839 123.464 243.108 122.694 244.177C121.924 245.245 120.84 246.076 119.444 246.669C118.048 247.262 116.399 247.559 114.497 247.559L105 247.56ZM110.2 226.66V232.464H113.739C114.919 232.464 115.827 232.221 116.465 231.734C117.103 231.247 117.422 230.529 117.422 229.58C117.422 228.63 117.102 227.907 116.465 227.408C115.827 226.91 114.918 226.661 113.739 226.661H110.199L110.2 226.66ZM110.2 243.18H114.244C115.592 243.18 116.634 242.895 117.368 242.326C118.102 241.756 118.469 240.937 118.469 239.869C118.469 238.801 118.102 237.982 117.368 237.413C116.633 236.843 115.592 236.558 114.244 236.558H110.2V243.18ZM127.063 247.56V221H132.119V247.56H127.063ZM145.335 248.093C143.915 248.093 142.603 247.844 141.399 247.346C140.224 246.867 139.156 246.159 138.257 245.263C137.36 244.363 136.654 243.291 136.181 242.112C135.687 240.902 135.441 239.584 135.441 238.16C135.441 236.736 135.693 235.425 136.199 234.226C136.691 233.048 137.408 231.978 138.311 231.076C139.219 230.17 140.3 229.456 141.489 228.975C142.705 228.476 144.035 228.227 145.479 228.227C146.899 228.227 148.212 228.477 149.415 228.975C150.59 229.454 151.658 230.162 152.557 231.058C153.451 231.953 154.157 233.019 154.633 234.191C155.127 235.389 155.373 236.701 155.373 238.125C155.373 239.549 155.121 240.866 154.615 242.076C154.127 243.261 153.409 244.338 152.503 245.245C151.595 246.15 150.514 246.864 149.325 247.345C148.109 247.844 146.779 248.093 145.335 248.093ZM145.407 243.607C146.322 243.607 147.14 243.37 147.863 242.895C148.585 242.421 149.156 241.774 149.578 240.955C149.999 240.136 150.21 239.205 150.21 238.16C150.21 237.116 149.999 236.184 149.578 235.365C149.156 234.547 148.585 233.9 147.863 233.425C147.14 232.95 146.322 232.713 145.407 232.713C144.492 232.713 143.674 232.95 142.952 233.425C142.229 233.9 141.658 234.547 141.236 235.365C140.816 236.185 140.604 237.115 140.604 238.16C140.604 239.205 140.815 240.136 141.236 240.955C141.658 241.774 142.229 242.421 142.952 242.895C143.674 243.37 144.492 243.607 145.407 243.607ZM166.531 247.025C165.368 247.033 164.216 246.791 163.155 246.313C162.121 245.848 161.193 245.175 160.429 244.337C159.646 243.475 159.034 242.472 158.623 241.382C158.19 240.255 157.973 239.038 157.973 237.733C157.973 236.38 158.196 235.128 158.641 233.977C159.064 232.861 159.702 231.839 160.519 230.969C161.317 230.12 162.274 229.437 163.336 228.957C164.406 228.471 165.568 228.227 166.82 228.227C168.048 228.227 169.155 228.471 170.142 228.957C171.128 229.442 171.973 230.171 172.598 231.075L172.706 228.761H177.364V245.316C177.364 246.764 177.13 248.081 176.66 249.268C176.215 250.418 175.532 251.462 174.656 252.33C173.774 253.194 172.723 253.867 171.569 254.306C170.377 254.769 169.059 255 167.615 255C166.195 255 164.918 254.78 163.787 254.341C162.692 253.925 161.687 253.302 160.826 252.508C159.99 251.734 159.315 250.802 158.84 249.766L163.679 248.592C164.095 249.264 164.672 249.82 165.358 250.212C166.044 250.603 166.82 250.799 167.687 250.799C168.626 250.799 169.438 250.591 170.124 250.176C170.813 249.757 171.37 249.152 171.731 248.431C172.116 247.684 172.309 246.811 172.309 245.815V244.284C171.655 245.141 170.807 245.83 169.835 246.295C168.836 246.782 167.735 247.025 166.531 247.025ZM167.759 242.61C168.649 242.61 169.439 242.39 170.124 241.952C170.814 241.508 171.38 240.896 171.767 240.172C172.177 239.424 172.381 238.576 172.381 237.626C172.381 236.676 172.177 235.828 171.767 235.081C171.38 234.357 170.814 233.745 170.124 233.301C169.438 232.861 168.65 232.641 167.759 232.641C166.869 232.641 166.08 232.861 165.394 233.301C164.704 233.745 164.138 234.357 163.751 235.081C163.341 235.828 163.137 236.677 163.137 237.626C163.137 238.576 163.342 239.424 163.751 240.172C164.161 240.919 164.708 241.512 165.394 241.952C166.08 242.391 166.868 242.61 167.759 242.61ZM181.409 247.56V228.76H186.067L186.247 231.608C186.729 230.612 187.379 229.846 188.197 229.312C189.016 228.778 189.979 228.511 191.087 228.511C191.423 228.511 191.76 228.541 192.097 228.6C192.434 228.66 192.735 228.737 193 228.831L192.458 233.745C192.195 233.65 191.923 233.585 191.646 233.549C191.364 233.513 191.081 233.495 190.797 233.495C189.401 233.495 188.33 233.917 187.584 234.759C186.837 235.602 186.464 236.794 186.464 238.337V247.558H181.409V247.56Z" fill="white"/>
<g filter="url(#filter0_d_0_1)">
<path d="M244.442 421.894C244.442 432.481 236.627 441.602 226.044 441.602H75.126C64.542 441.602 55.34 432.481 55.34 421.894V50.059C55.34 39.472 64.542 31.732 75.126 31.732H92.573C96.262 31.732 97.624 31.31 97.848 35.987C97.964 38.417 98.855 40.305 100.283 41.868C101.709 43.402 103.673 44.662 105.929 45.369C107.46 45.849 109.165 46.283 110.79 46.283H190.541C192.167 46.283 193.871 45.749 195.402 45.27C197.66 44.563 199.622 43.383 201.049 41.878C202.477 40.343 203.368 38.534 203.483 36.105C203.706 31.429 205.07 31.732 208.759 31.732H226.044C236.627 31.732 244.442 39.472 244.442 50.059V421.894ZM138.847 33.55H162.484C163.488 33.55 164.303 34.172 164.303 35.065C164.303 35.958 163.488 36.581 162.484 36.581H138.847C137.842 36.581 137.029 35.958 137.029 35.065C137.029 34.172 137.842 33.55 138.847 33.55ZM174.91 34.072C174.91 34.7756 174.63 35.4504 174.133 35.948C173.635 36.4455 172.961 36.725 172.257 36.725C171.553 36.725 170.879 36.4455 170.381 35.948C169.884 35.4504 169.604 34.7756 169.604 34.072C169.604 33.3684 169.884 32.6936 170.381 32.1961C170.879 31.6985 171.553 31.419 172.257 31.419C172.961 31.419 173.635 31.6985 174.133 32.1961C174.63 32.6936 174.91 33.3684 174.91 34.072ZM255.958 119.04V51.254C255.958 34.11 242.065 20.212 224.926 20.212H74.148C56.471 20.212 42.006 34.682 42.006 52.367V77.206C41.5238 77.206 41.0612 77.3975 40.7201 77.7384C40.379 78.0793 40.1873 78.5417 40.187 79.024V91.757C40.187 92.2395 40.3786 92.7023 40.7197 93.0436C41.0608 93.3849 41.5235 93.5767 42.006 93.577V108.734C41.5235 108.734 41.0608 108.926 40.7197 109.267C40.3786 109.609 40.187 110.071 40.187 110.554V137.838C40.1875 138.32 40.3794 138.782 40.7204 139.123C41.0615 139.464 41.5238 139.656 42.006 139.656V148.751C41.5238 148.751 41.0615 148.943 40.7204 149.284C40.3794 149.625 40.1875 150.087 40.187 150.569V177.854C40.187 178.337 40.3786 178.799 40.7197 179.141C41.0608 179.482 41.5235 179.674 42.006 179.674V423.29C42.006 441.03 56.515 455.547 74.249 455.547H224.926C241.993 455.547 255.958 441.577 255.958 424.504V169.364H256.563C256.802 169.364 257.039 169.317 257.259 169.226C257.48 169.134 257.681 169.001 257.85 168.832C258.019 168.663 258.153 168.462 258.244 168.241C258.336 168.021 258.383 167.784 258.383 167.545V120.86C258.383 119.855 257.569 119.04 256.563 119.04H255.958Z" fill="black"/>
</g>
<path d="M244.442 421.894C244.442 432.481 236.627 441.602 226.044 441.602H75.126C64.542 441.602 55.34 432.481 55.34 421.894V50.059C55.34 39.472 64.542 31.732 75.126 31.732H92.573C96.262 31.732 97.624 31.31 97.848 35.987C97.964 38.417 98.855 40.305 100.283 41.868C101.709 43.402 103.673 44.662 105.929 45.369C107.46 45.849 109.165 46.283 110.79 46.283H190.541C192.167 46.283 193.871 45.749 195.402 45.27C197.66 44.563 199.622 43.383 201.049 41.878C202.477 40.343 203.368 38.534 203.483 36.105C203.706 31.429 205.07 31.732 208.759 31.732H226.044C236.627 31.732 244.442 39.472 244.442 50.059V421.894ZM138.847 33.55H162.484C163.488 33.55 164.303 34.172 164.303 35.065C164.303 35.958 163.488 36.581 162.484 36.581H138.847C137.842 36.581 137.029 35.958 137.029 35.065C137.029 34.172 137.842 33.55 138.847 33.55ZM174.91 34.072C174.91 34.7756 174.63 35.4504 174.133 35.948C173.635 36.4455 172.961 36.725 172.257 36.725C171.553 36.725 170.879 36.4455 170.381 35.948C169.884 35.4504 169.604 34.7756 169.604 34.072C169.604 33.3684 169.884 32.6936 170.381 32.1961C170.879 31.6985 171.553 31.419 172.257 31.419C172.961 31.419 173.635 31.6985 174.133 32.1961C174.63 32.6936 174.91 33.3684 174.91 34.072ZM255.958 119.04V51.254C255.958 34.11 242.065 20.212 224.926 20.212H74.148C56.471 20.212 42.006 34.682 42.006 52.367V77.206C41.5238 77.206 41.0612 77.3975 40.7201 77.7384C40.379 78.0793 40.1873 78.5417 40.187 79.024V91.757C40.187 92.2395 40.3786 92.7023 40.7197 93.0436C41.0608 93.3849 41.5235 93.5767 42.006 93.577V108.734C41.5235 108.734 41.0608 108.926 40.7197 109.267C40.3786 109.609 40.187 110.071 40.187 110.554V137.838C40.1875 138.32 40.3794 138.782 40.7204 139.123C41.0615 139.464 41.5238 139.656 42.006 139.656V148.751C41.5238 148.751 41.0615 148.943 40.7204 149.284C40.3794 149.625 40.1875 150.087 40.187 150.569V177.854C40.187 178.337 40.3786 178.799 40.7197 179.141C41.0608 179.482 41.5235 179.674 42.006 179.674V423.29C42.006 441.03 56.515 455.547 74.249 455.547H224.926C241.993 455.547 255.958 441.577 255.958 424.504V169.364H256.563C256.802 169.364 257.039 169.317 257.259 169.226C257.48 169.134 257.681 169.001 257.85 168.832C258.019 168.663 258.153 168.462 258.244 168.241C258.336 168.021 258.383 167.784 258.383 167.545V120.86C258.383 119.855 257.569 119.04 256.563 119.04H255.958Z" fill="#1D1D25"/>
<path fill-rule="evenodd" clip-rule="evenodd" d="M162.484 33.55H138.847C137.842 33.55 137.028 34.174 137.028 35.067C137.028 35.959 137.842 36.582 138.848 36.582H162.484C163.489 36.582 164.304 35.959 164.304 35.067C164.304 34.174 163.489 33.55 162.484 33.55ZM172.258 31.42C171.554 31.4203 170.88 31.7 170.382 32.1978C169.885 32.6955 169.606 33.3704 169.606 34.074C169.606 34.7776 169.886 35.4523 170.384 35.9497C170.881 36.447 171.556 36.7263 172.26 36.726C172.964 36.7257 173.638 36.446 174.136 35.9483C174.633 35.4505 174.912 34.7756 174.912 34.072C174.912 33.3684 174.632 32.6937 174.134 32.1964C173.637 31.699 172.962 31.4197 172.258 31.42Z" fill="black"/>
<path d="M483 88H323C310.85 88 301 97.8497 301 110V489C301 501.15 310.85 511 323 511H483C495.15 511 505 501.15 505 489V110C505 97.8497 495.15 88 483 88Z" fill="url(#paint1_linear_0_1)"/>
<path d="M475.335 94H330C317.85 94 308 103.85 308 116V486.321C308 498.471 317.85 508.321 330 508.321H475.335C487.485 508.321 497.335 498.471 497.335 486.321V116C497.335 103.85 487.485 94 475.335 94Z" fill="white"/>
<path d="M475.335 94H330C317.85 94 308 103.85 308 116V145.269C308 157.419 317.85 167.269 330 167.269H475.335C487.485 167.269 497.335 157.419 497.335 145.269V116C497.335 103.85 487.485 94 475.335 94Z" fill="url(#paint2_linear_0_1)"/>
<g filter="url(#filter1_d_0_1)">
<path d="M481.992 140.23H323.343C321.134 140.23 319.343 142.021 319.343 144.23V194.671C319.343 196.88 321.134 198.671 323.343 198.671H481.992C484.201 198.671 485.992 196.88 485.992 194.671V144.23C485.992 142.021 484.201 140.23 481.992 140.23Z" fill="black"/>
</g>
<path d="M481.992 140.23H323.343C321.134 140.23 319.343 142.021 319.343 144.23V194.671C319.343 196.88 321.134 198.671 323.343 198.671H481.992C484.201 198.671 485.992 196.88 485.992 194.671V144.23C485.992 142.021 484.201 140.23 481.992 140.23Z" fill="white"/>
<g filter="url(#filter2_d_0_1)">
<path d="M481.992 212.627H323.343C321.134 212.627 319.343 214.418 319.343 216.627V267.068C319.343 269.277 321.134 271.068 323.343 271.068H481.992C484.201 271.068 485.992 269.277 485.992 267.068V216.627C485.992 214.418 484.201 212.627 481.992 212.627Z" fill="black"/>
</g>
<path d="M481.992 212.627H323.343C321.134 212.627 319.343 214.418 319.343 216.627V267.068C319.343 269.277 321.134 271.068 323.343 271.068H481.992C484.201 271.068 485.992 269.277 485.992 267.068V216.627C485.992 214.418 484.201 212.627 481.992 212.627Z" fill="white"/>
<g filter="url(#filter3_d_0_1)">
<path d="M481.992 285.024H323.343C321.134 285.024 319.343 286.815 319.343 289.024V339.465C319.343 341.674 321.134 343.465 323.343 343.465H481.992C484.201 343.465 485.992 341.674 485.992 339.465V289.024C485.992 286.815 484.201 285.024 481.992 285.024Z" fill="black"/>
</g>
<path d="M481.992 285.024H323.343C321.134 285.024 319.343 286.815 319.343 289.024V339.465C319.343 341.674 321.134 343.465 323.343 343.465H481.992C484.201 343.465 485.992 341.674 485.992 339.465V289.024C485.992 286.815 484.201 285.024 481.992 285.024Z" fill="white"/>
<g filter="url(#filter4_d_0_1)">
<path d="M481.992 357.422H323.343C321.134 357.422 319.343 359.213 319.343 361.422V411.863C319.343 414.072 321.134 415.863 323.343 415.863H481.992C484.201 415.863 485.992 414.072 485.992 411.863V361.422C485.992 359.213 484.201 357.422 481.992 357.422Z" fill="black"/>
</g>
<path d="M481.992 357.422H323.343C321.134 357.422 319.343 359.213 319.343 361.422V411.863C319.343 414.072 321.134 415.863 323.343 415.863H481.992C484.201 415.863 485.992 414.072 485.992 411.863V361.422C485.992 359.213 484.201 357.422 481.992 357.422Z" fill="white"/>
<g filter="url(#filter5_d_0_1)">
<path d="M481.992 429.819H323.343C321.134 429.819 319.343 431.61 319.343 433.819V484.26C319.343 486.469 321.134 488.26 323.343 488.26H481.992C484.201 488.26 485.992 486.469 485.992 484.26V433.819C485.992 431.61 484.201 429.819 481.992 429.819Z" fill="black"/>
</g>
<path d="M481.992 429.819H323.343C321.134 429.819 319.343 431.61 319.343 433.819V484.26C319.343 486.469 321.134 488.26 323.343 488.26H481.992C484.201 488.26 485.992 486.469 485.992 484.26V433.819C485.992 431.61 484.201 429.819 481.992 429.819Z" fill="white"/>
<path d="M358 310.56V285.282H367.316C369.05 285.282 370.548 285.549 371.812 286.082C373.076 286.617 374.051 287.376 374.737 288.362C375.423 289.346 375.767 290.503 375.767 291.832C375.767 293.042 375.501 294.105 374.972 295.019C374.442 295.933 373.666 296.679 372.732 297.173C374.032 297.671 375.044 298.46 375.766 299.54C376.488 300.62 376.849 301.896 376.849 303.368C376.849 304.839 376.464 306.108 375.694 307.177C374.924 308.245 373.84 309.076 372.444 309.669C371.048 310.262 369.399 310.559 367.497 310.559L358 310.56ZM363.2 289.66V295.464H366.739C367.919 295.464 368.827 295.221 369.465 294.734C370.103 294.247 370.422 293.529 370.422 292.58C370.422 291.63 370.102 290.907 369.465 290.408C368.827 289.91 367.918 289.661 366.739 289.661H363.199L363.2 289.66ZM363.2 306.18H367.244C368.592 306.18 369.634 305.895 370.368 305.326C371.102 304.756 371.469 303.937 371.469 302.869C371.469 301.801 371.102 300.982 370.368 300.413C369.633 299.843 368.592 299.558 367.244 299.558H363.2V306.18ZM380.063 310.56V284H385.119V310.56H380.063ZM398.335 311.093C396.915 311.093 395.603 310.844 394.399 310.346C393.224 309.867 392.156 309.159 391.257 308.263C390.36 307.363 389.654 306.291 389.181 305.112C388.687 303.902 388.441 302.584 388.441 301.16C388.441 299.736 388.693 298.425 389.199 297.226C389.691 296.048 390.408 294.978 391.311 294.076C392.219 293.17 393.3 292.456 394.489 291.975C395.705 291.476 397.035 291.227 398.479 291.227C399.899 291.227 401.212 291.477 402.415 291.975C403.59 292.454 404.658 293.162 405.557 294.058C406.451 294.953 407.157 296.019 407.633 297.191C408.127 298.389 408.373 299.701 408.373 301.125C408.373 302.549 408.121 303.866 407.615 305.076C407.127 306.261 406.409 307.338 405.503 308.245C404.595 309.15 403.514 309.864 402.325 310.345C401.109 310.844 399.779 311.093 398.335 311.093ZM398.407 306.607C399.322 306.607 400.14 306.37 400.863 305.895C401.585 305.421 402.156 304.774 402.578 303.955C402.999 303.136 403.21 302.205 403.21 301.16C403.21 300.116 402.999 299.184 402.578 298.365C402.156 297.547 401.585 296.9 400.863 296.425C400.14 295.95 399.322 295.713 398.407 295.713C397.492 295.713 396.674 295.95 395.952 296.425C395.229 296.9 394.658 297.547 394.236 298.365C393.816 299.185 393.604 300.115 393.604 301.16C393.604 302.205 393.815 303.136 394.236 303.955C394.658 304.774 395.229 305.421 395.952 305.895C396.674 306.37 397.492 306.607 398.407 306.607ZM419.531 310.025C418.368 310.033 417.216 309.791 416.155 309.313C415.121 308.848 414.193 308.175 413.429 307.337C412.646 306.475 412.034 305.472 411.623 304.382C411.19 303.255 410.973 302.038 410.973 300.733C410.973 299.38 411.196 298.128 411.641 296.977C412.064 295.861 412.702 294.839 413.519 293.969C414.317 293.12 415.274 292.437 416.336 291.957C417.406 291.471 418.568 291.227 419.82 291.227C421.048 291.227 422.155 291.471 423.142 291.957C424.128 292.442 424.973 293.171 425.598 294.075L425.706 291.761H430.364V308.316C430.364 309.764 430.13 311.081 429.66 312.268C429.215 313.418 428.532 314.462 427.656 315.33C426.774 316.194 425.723 316.867 424.569 317.306C423.377 317.769 422.059 318 420.615 318C419.195 318 417.918 317.78 416.787 317.341C415.692 316.925 414.687 316.302 413.826 315.508C412.99 314.734 412.315 313.802 411.84 312.766L416.679 311.592C417.095 312.264 417.672 312.82 418.358 313.212C419.044 313.603 419.82 313.799 420.687 313.799C421.626 313.799 422.438 313.591 423.124 313.176C423.813 312.757 424.37 312.152 424.731 311.431C425.116 310.684 425.309 309.811 425.309 308.815V307.284C424.656 308.141 423.808 308.83 422.835 309.295C421.836 309.782 420.735 310.025 419.531 310.025ZM420.759 305.61C421.649 305.61 422.439 305.39 423.124 304.952C423.814 304.508 424.38 303.896 424.767 303.172C425.177 302.424 425.381 301.576 425.381 300.626C425.381 299.676 425.177 298.828 424.767 298.081C424.38 297.357 423.814 296.745 423.124 296.301C422.438 295.861 421.65 295.641 420.759 295.641C419.869 295.641 419.08 295.861 418.394 296.301C417.704 296.745 417.138 297.357 416.751 298.081C416.341 298.828 416.137 299.677 416.137 300.626C416.137 301.576 416.342 302.424 416.751 303.172C417.161 303.919 417.708 304.512 418.394 304.952C419.08 305.391 419.868 305.61 420.759 305.61ZM434.409 310.56V291.76H439.067L439.247 294.608C439.729 293.612 440.379 292.846 441.197 292.312C442.016 291.778 442.979 291.511 444.087 291.511C444.423 291.511 444.76 291.541 445.097 291.6C445.434 291.66 445.735 291.737 446 291.831L445.458 296.745C445.195 296.65 444.923 296.585 444.646 296.549C444.364 296.513 444.081 296.495 443.797 296.495C442.401 296.495 441.33 296.917 440.584 297.759C439.837 298.602 439.464 299.794 439.464 301.337V310.558H434.409V310.56Z" fill="white"/>
<g filter="url(#filter6_d_0_1)">
<path d="M497.442 484.894C497.442 495.481 489.627 504.602 479.044 504.602H328.126C317.542 504.602 308.34 495.481 308.34 484.894V113.059C308.34 102.472 317.542 94.732 328.126 94.732H345.573C349.262 94.732 350.624 94.31 350.848 98.987C350.964 101.417 351.855 103.305 353.283 104.868C354.709 106.402 356.673 107.662 358.929 108.369C360.46 108.849 362.165 109.283 363.79 109.283H443.541C445.167 109.283 446.871 108.749 448.402 108.27C450.66 107.563 452.622 106.383 454.049 104.878C455.477 103.343 456.368 101.534 456.483 99.105C456.706 94.429 458.07 94.732 461.759 94.732H479.044C489.627 94.732 497.442 102.472 497.442 113.059V484.894ZM391.847 96.55H415.484C416.488 96.55 417.303 97.172 417.303 98.065C417.303 98.958 416.488 99.581 415.484 99.581H391.847C390.842 99.581 390.029 98.958 390.029 98.065C390.029 97.172 390.842 96.55 391.847 96.55ZM427.91 97.072C427.91 97.7756 427.631 98.4504 427.133 98.948C426.635 99.4455 425.961 99.725 425.257 99.725C424.553 99.725 423.879 99.4455 423.381 98.948C422.884 98.4504 422.604 97.7756 422.604 97.072C422.604 96.3684 422.884 95.6936 423.381 95.1961C423.879 94.6985 424.553 94.419 425.257 94.419C425.961 94.419 426.635 94.6985 427.133 95.1961C427.631 95.6936 427.91 96.3684 427.91 97.072ZM508.958 182.04V114.254C508.958 97.11 495.065 83.212 477.926 83.212H327.148C309.471 83.212 295.006 97.682 295.006 115.367V140.206C294.524 140.206 294.061 140.398 293.72 140.738C293.379 141.079 293.187 141.542 293.187 142.024V154.757C293.187 155.24 293.379 155.702 293.72 156.044C294.061 156.385 294.524 156.577 295.006 156.577V171.734C294.524 171.734 294.061 171.926 293.72 172.267C293.379 172.609 293.187 173.071 293.187 173.554V200.838C293.188 201.32 293.379 201.782 293.72 202.123C294.061 202.464 294.524 202.656 295.006 202.656V211.751C294.524 211.751 294.061 211.943 293.72 212.284C293.379 212.625 293.188 213.087 293.187 213.569V240.854C293.187 241.337 293.379 241.799 293.72 242.141C294.061 242.482 294.524 242.674 295.006 242.674V486.29C295.006 504.03 309.515 518.547 327.249 518.547H477.926C494.993 518.547 508.958 504.577 508.958 487.504V232.364H509.563C509.802 232.364 510.039 232.317 510.259 232.226C510.48 232.134 510.681 232.001 510.85 231.832C511.019 231.663 511.153 231.462 511.244 231.241C511.336 231.021 511.383 230.784 511.383 230.545V183.86C511.383 182.855 510.569 182.04 509.563 182.04H508.958Z" fill="black"/>
</g>
<path d="M497.442 484.894C497.442 495.481 489.627 504.602 479.044 504.602H328.126C317.542 504.602 308.34 495.481 308.34 484.894V113.059C308.34 102.472 317.542 94.732 328.126 94.732H345.573C349.262 94.732 350.624 94.31 350.848 98.987C350.964 101.417 351.855 103.305 353.283 104.868C354.709 106.402 356.673 107.662 358.929 108.369C360.46 108.849 362.165 109.283 363.79 109.283H443.541C445.167 109.283 446.871 108.749 448.402 108.27C450.66 107.563 452.622 106.383 454.049 104.878C455.477 103.343 456.368 101.534 456.483 99.105C456.706 94.429 458.07 94.732 461.759 94.732H479.044C489.627 94.732 497.442 102.472 497.442 113.059V484.894ZM391.847 96.55H415.484C416.488 96.55 417.303 97.172 417.303 98.065C417.303 98.958 416.488 99.581 415.484 99.581H391.847C390.842 99.581 390.029 98.958 390.029 98.065C390.029 97.172 390.842 96.55 391.847 96.55ZM427.91 97.072C427.91 97.7756 427.631 98.4504 427.133 98.948C426.635 99.4455 425.961 99.725 425.257 99.725C424.553 99.725 423.879 99.4455 423.381 98.948C422.884 98.4504 422.604 97.7756 422.604 97.072C422.604 96.3684 422.884 95.6936 423.381 95.1961C423.879 94.6985 424.553 94.419 425.257 94.419C425.961 94.419 426.635 94.6985 427.133 95.1961C427.631 95.6936 427.91 96.3684 427.91 97.072ZM508.958 182.04V114.254C508.958 97.11 495.065 83.212 477.926 83.212H327.148C309.471 83.212 295.006 97.682 295.006 115.367V140.206C294.524 140.206 294.061 140.398 293.72 140.738C293.379 141.079 293.187 141.542 293.187 142.024V154.757C293.187 155.24 293.379 155.702 293.72 156.044C294.061 156.385 294.524 156.577 295.006 156.577V171.734C294.524 171.734 294.061 171.926 293.72 172.267C293.379 172.609 293.187 173.071 293.187 173.554V200.838C293.188 201.32 293.379 201.782 293.72 202.123C294.061 202.464 294.524 202.656 295.006 202.656V211.751C294.524 211.751 294.061 211.943 293.72 212.284C293.379 212.625 293.188 213.087 293.187 213.569V240.854C293.187 241.337 293.379 241.799 293.72 242.141C294.061 242.482 294.524 242.674 295.006 242.674V486.29C295.006 504.03 309.515 518.547 327.249 518.547H477.926C494.993 518.547 508.958 504.577 508.958 487.504V232.364H509.563C509.802 232.364 510.039 232.317 510.259 232.226C510.48 232.134 510.681 232.001 510.85 231.832C511.019 231.663 511.153 231.462 511.244 231.241C511.336 231.021 511.383 230.784 511.383 230.545V183.86C511.383 182.855 510.569 182.04 509.563 182.04H508.958Z" fill="#1D1D25"/>
<path fill-rule="evenodd" clip-rule="evenodd" d="M415.484 96.55H391.847C390.842 96.55 390.028 97.174 390.028 98.067C390.028 98.959 390.842 99.582 391.848 99.582H415.484C416.489 99.582 417.304 98.959 417.304 98.067C417.304 97.174 416.489 96.55 415.484 96.55ZM425.258 94.42C424.554 94.4203 423.88 94.7 423.382 95.1978C422.885 95.6955 422.606 96.3704 422.606 97.074C422.606 97.7776 422.886 98.4523 423.384 98.9497C423.882 99.447 424.556 99.7263 425.26 99.726C425.964 99.7257 426.638 99.446 427.136 98.9483C427.633 98.4505 427.912 97.7756 427.912 97.072C427.912 96.3684 427.632 95.6937 427.134 95.1964C426.637 94.699 425.962 94.4197 425.258 94.42Z" fill="black"/>
<rect x="95" y="217" width="126" height="50" fill="#FF8F70"/>
<path d="M107.94 248V227H116.22C117.9 227 119.22 227.29 120.18 227.87C121.15 228.45 121.835 229.2 122.235 230.12C122.645 231.03 122.85 231.98 122.85 232.97C122.85 233.8 122.685 234.62 122.355 235.43C122.035 236.23 121.515 236.935 120.795 237.545C120.075 238.155 119.13 238.58 117.96 238.82L122.46 248H119.52L115.2 239H110.55V248H107.94ZM110.55 236.57H116.28C117.26 236.57 118.035 236.395 118.605 236.045C119.185 235.695 119.595 235.25 119.835 234.71C120.085 234.17 120.21 233.61 120.21 233.03C120.21 232.51 120.095 231.975 119.865 231.425C119.645 230.865 119.25 230.395 118.68 230.015C118.11 229.625 117.31 229.43 116.28 229.43H110.55V236.57ZM127.891 248V227H140.371V229.46H130.501V235.91H137.011V238.37H130.501V245.51H141.031V248H127.891ZM154.765 248.36L149.065 235.1C148.915 234.75 148.755 234.37 148.585 233.96C148.425 233.54 148.285 233.16 148.165 232.82C148.195 233.09 148.215 233.45 148.225 233.9C148.245 234.34 148.255 234.74 148.255 235.1V248H145.645V227H148.105L154.225 241.13C154.315 241.35 154.405 241.58 154.495 241.82C154.585 242.06 154.675 242.3 154.765 242.54C154.845 242.31 154.93 242.08 155.02 241.85C155.11 241.61 155.205 241.37 155.305 241.13L161.395 227H163.885V248H161.275V235.1C161.275 234.74 161.28 234.335 161.29 233.885C161.31 233.425 161.325 233.06 161.335 232.79C161.215 233.13 161.065 233.52 160.885 233.96C160.715 234.4 160.555 234.8 160.405 235.16L154.765 248.36ZM169.639 248V227H172.249V248H169.639ZM176.487 248L182.727 237.14L176.937 227H179.877L184.197 234.59L188.457 227H191.337L185.577 236.99L191.877 248H188.937L184.107 239.51L179.397 248H176.487Z" fill="white"/>
</g>
<defs>
<filter id="filter0_d_0_1" x="0.187012" y="0.212006" width="298.196" height="515.335" filterUnits="userSpaceOnUse" color-interpolation-filters="sRGB">
<feFlood flood-opacity="0" result="BackgroundImageFix"/>
<feColorMatrix in="SourceAlpha" type="matrix" values="0 0 0 0 0 0 0 0 0 0 0 0 0 0 0 0 0 0 127 0" result="hardAlpha"/>
<feOffset dy="20"/>
<feGaussianBlur stdDeviation="20"/>
<feColorMatrix type="matrix" values="0 0 0 0 0.421822 0 0 0 0 0.554338 0 0 0 0 0.89371 0 0 0 0.243444 0"/>
<feBlend mode="normal" in2="BackgroundImageFix" result="effect1_dropShadow_0_1"/>
<feBlend mode="normal" in="SourceGraphic" in2="effect1_dropShadow_0_1" result="shape"/>
</filter>
<filter id="filter1_d_0_1" x="299.343" y="130.23" width="206.649" height="98.441" filterUnits="userSpaceOnUse" color-interpolation-filters="sRGB">
<feFlood flood-opacity="0" result="BackgroundImageFix"/>
<feColorMatrix in="SourceAlpha" type="matrix" values="0 0 0 0 0 0 0 0 0 0 0 0 0 0 0 0 0 0 127 0" result="hardAlpha"/>
<feOffset dy="10"/>
<feGaussianBlur stdDeviation="10"/>
<feColorMatrix type="matrix" values="0 0 0 0 0.421822 0 0 0 0 0.554338 0 0 0 0 0.89371 0 0 0 0.243444 0"/>
<feBlend mode="normal" in2="BackgroundImageFix" result="effect1_dropShadow_0_1"/>
<feBlend mode="normal" in="SourceGraphic" in2="effect1_dropShadow_0_1" result="shape"/>
</filter>
<filter id="filter2_d_0_1" x="299.343" y="202.627" width="206.649" height="98.441" filterUnits="userSpaceOnUse" color-interpolation-filters="sRGB">
<feFlood flood-opacity="0" result="BackgroundImageFix"/>
<feColorMatrix in="SourceAlpha" type="matrix" values="0 0 0 0 0 0 0 0 0 0 0 0 0 0 0 0 0 0 127 0" result="hardAlpha"/>
<feOffset dy="10"/>
<feGaussianBlur stdDeviation="10"/>
<feColorMatrix type="matrix" values="0 0 0 0 0.421822 0 0 0 0 0.554338 0 0 0 0 0.89371 0 0 0 0.243444 0"/>
<feBlend mode="normal" in2="BackgroundImageFix" result="effect1_dropShadow_0_1"/>
<feBlend mode="normal" in="SourceGraphic" in2="effect1_dropShadow_0_1" result="shape"/>
</filter>
<filter id="filter3_d_0_1" x="299.343" y="275.024" width="206.649" height="98.441" filterUnits="userSpaceOnUse" color-interpolation-filters="sRGB">
<feFlood flood-opacity="0" result="BackgroundImageFix"/>
<feColorMatrix in="SourceAlpha" type="matrix" values="0 0 0 0 0 0 0 0 0 0 0 0 0 0 0 0 0 0 127 0" result="hardAlpha"/>
<feOffset dy="10"/>
<feGaussianBlur stdDeviation="10"/>
<feColorMatrix type="matrix" values="0 0 0 0 0.421822 0 0 0 0 0.554338 0 0 0 0 0.89371 0 0 0 0.243444 0"/>
<feBlend mode="normal" in2="BackgroundImageFix" result="effect1_dropShadow_0_1"/>
<feBlend mode="normal" in="SourceGraphic" in2="effect1_dropShadow_0_1" result="shape"/>
</filter>
<filter id="filter4_d_0_1" x="299.343" y="347.422" width="206.649" height="98.441" filterUnits="userSpaceOnUse" color-interpolation-filters="sRGB">
<feFlood flood-opacity="0" result="BackgroundImageFix"/>
<feColorMatrix in="SourceAlpha" type="matrix" values="0 0 0 0 0 0 0 0 0 0 0 0 0 0 0 0 0 0 127 0" result="hardAlpha"/>
<feOffset dy="10"/>
<feGaussianBlur stdDeviation="10"/>
<feColorMatrix type="matrix" values="0 0 0 0 0.421822 0 0 0 0 0.554338 0 0 0 0 0.89371 0 0 0 0.243444 0"/>
<feBlend mode="normal" in2="BackgroundImageFix" result="effect1_dropShadow_0_1"/>
<feBlend mode="normal" in="SourceGraphic" in2="effect1_dropShadow_0_1" result="shape"/>
</filter>
<filter id="filter5_d_0_1" x="299.343" y="419.819" width="206.649" height="98.441" filterUnits="userSpaceOnUse" color-interpolation-filters="sRGB">
<feFlood flood-opacity="0" result="BackgroundImageFix"/>
<feColorMatrix in="SourceAlpha" type="matrix" values="0 0 0 0 0 0 0 0 0 0 0 0 0 0 0 0 0 0 127 0" result="hardAlpha"/>
<feOffset dy="10"/>
<feGaussianBlur stdDeviation="10"/>
<feColorMatrix type="matrix" values="0 0 0 0 0.421822 0 0 0 0 0.554338 0 0 0 0 0.89371 0 0 0 0.243444 0"/>
<feBlend mode="normal" in2="BackgroundImageFix" result="effect1_dropShadow_0_1"/>
<feBlend mode="normal" in="SourceGraphic" in2="effect1_dropShadow_0_1" result="shape"/>
</filter>
<filter id="filter6_d_0_1" x="253.187" y="63.212" width="298.196" height="515.335" filterUnits="userSpaceOnUse" color-interpolation-filters="sRGB">
<feFlood flood-opacity="0" result="BackgroundImageFix"/>
<feColorMatrix in="SourceAlpha" type="matrix" values="0 0 0 0 0 0 0 0 0 0 0 0 0 0 0 0 0 0 127 0" result="hardAlpha"/>
<feOffset dy="20"/>
<feGaussianBlur stdDeviation="20"/>
<feColorMatrix type="matrix" values="0 0 0 0 0.421822 0 0 0 0 0.554338 0 0 0 0 0.89371 0 0 0 0.243444 0"/>
<feBlend mode="normal" in2="BackgroundImageFix" result="effect1_dropShadow_0_1"/>
<feBlend mode="normal" in="SourceGraphic" in2="effect1_dropShadow_0_1" result="shape"/>
</filter>
<linearGradient id="paint0_linear_0_1" x1="7875.68" y1="24.9999" x2="25321.4" y2="36199.8" gradientUnits="userSpaceOnUse">
<stop stop-color="#FF8F71"/>
<stop offset="1" stop-color="#FF3E55"/>
</linearGradient>
<linearGradient id="paint1_linear_0_1" x1="8128.68" y1="87.9999" x2="25574.4" y2="36262.8" gradientUnits="userSpaceOnUse">
<stop stop-color="#FF8F71"/>
<stop offset="1" stop-color="#FF3E55"/>
</linearGradient>
<linearGradient id="paint2_linear_0_1" x1="308" y1="3208.81" x2="17144.6" y2="9724.51" gradientUnits="userSpaceOnUse">
<stop stop-color="#FF8F71"/>
<stop offset="1" stop-color="#FF3E55"/>
</linearGradient>
<clipPath id="clip0_0_1">
<rect width="552" height="579" fill="white"/>
</clipPath>
</defs>
</svg>
